<svg width="24" height="24" viewBox="0 0 24 24" fill="none" xmlns="http://www.w3.org/2000/svg">
  <path d="M12 15C13.6569 15 15 13.6569 15 12C15 10.3431 13.6569 9 12 9C10.3431 9 9 10.3431 9 12C9 13.6569 10.3431 15 12 15Z" stroke="currentColor" stroke-width="2" stroke-linecap="round" stroke-linejoin="round"/>
  <path d="M19.4 15C19.5321 14.1319 19.5321 13.2515 19.4 12.3834L21.5 10.2834C21.8261 9.95628 21.948 9.48209 21.8194 9.0384C21.3721 7.6034 20.5526 6.3124 19.4463 5.2924C19.0928 4.9564 18.591 4.8584 18.15 5.0384L16.06 5.8464C15.1066 5.3704 14.0666 5.0384 13 4.8784V2.5004C13 2.0104 12.622 1.6324 12.132 1.6324C10.5855 1.6324 9.09181 2.0454 7.7596 2.8464C7.2968 3.1324 7.1146 3.7184 7.3146 4.2384L8.0386 6.1664C7.4136 6.7424 6.8876 7.4144 6.4826 8.1584L4.5 8.5004C4.0204 8.5784 3.6534 8.9624 3.6534 9.4464C3.6534 11.0984 4.1704 12.6784 5.1186 14.0004C5.3886 14.3944 5.3434 14.9144 5.0094 15.2484L3.3714 16.8864C3.0374 17.2204 3.0008 17.7364 3.2798 18.1144C4.2222 19.3824 5.4854 20.4064 6.9414 21.0784C7.3526 21.2704 7.8394 21.1064 8.0854 20.7184L9.2334 19.0704C9.7714 19.3024 10.3346 19.4784 10.9146 19.5904L11.2534 21.5004C11.3314 21.9804 11.7154 22.3474 12.1994 22.3474C13.8514 22.3474 15.4314 21.8304 16.7534 20.8824C17.1474 20.6124 17.1994 20.0924 16.8654 19.7584L15.2274 18.1204C14.8494 17.8414 14.3334 17.8784 13.9994 18.2124L13.5 18.7114" stroke="currentColor" stroke-width="2" stroke-linecap="round" stroke-linejoin="round"/>
</svg>